<mxfile host="app.diagrams.net" modified="2024-07-07T06:43:55.504Z" agent="Mozilla/5.0 (Windows NT 10.0; Win64; x64) AppleWebKit/537.36 (KHTML, like Gecko) Chrome/126.0.0.0 Safari/537.36" version="24.6.4" etag="4a9Hq6H_Yr6p3i1nxekZ" type="github">
  <diagram name="第 1 页" id="OAlhQ5RgoAdpzEQPvTgW">
    <mxGraphModel>
      <root>
        <mxCell id="0" />
        <mxCell id="1" parent="0" />
      </root>
    </mxGraphModel>
  </diagram>
</mxfile>
